<?xml version="1.0" encoding="UTF-8"?>
<svg version="1.1" xmlns="http://www.w3.org/2000/svg" width="1024" height="1024">
<path d="M0 0 C4.80847803 3.15370573 8.67506977 6.97587547 12.66062927 11.09407043 C13.91584129 12.35989456 13.91584129 12.35989456 15.19641113 13.65129089 C17.83333413 16.3158785 20.45222813 18.99738281 23.07078552 21.68000793 C24.85150884 23.48585753 26.63340109 25.29055524 28.41648865 27.09407043 C31.67693812 30.39512434 34.93069318 33.70245581 38.17601013 37.01838684 C39.49481508 38.36420835 40.81387257 39.70978249 42.13328552 41.05500793 C42.89670761 41.8337326 42.89670761 41.8337326 43.67555237 42.62818909 C45.71340939 44.68963822 47.74309837 46.54550957 50.00828552 48.36750793 C53.21080072 50.97726968 55.79730753 54.00481327 58.47703552 57.13703918 C61.41439671 60.53855886 64.50737994 63.55156214 68.00828552 66.36750793 C70.30349552 68.24750406 72.21656334 70.22904204 74.13328552 72.49250793 C79.23917524 78.49135595 84.93140413 83.93687206 90.5322113 89.46784973 C91.9917905 90.91474274 93.43826909 92.37482086 94.88328552 93.83625793 C97.16076057 96.15669351 97.16076057 96.15669351 100.00828552 98.36750793 C103.21080072 100.97726968 105.79730753 104.00481327 108.47703552 107.13703918 C111.41439671 110.53855886 114.50737994 113.55156214 118.00828552 116.36750793 C121.21080072 118.97726968 123.79730753 122.00481327 126.47703552 125.13703918 C129.41439671 128.53855886 132.50737994 131.55156214 136.00828552 134.36750793 C138.48051974 136.37817413 140.50770013 138.56480566 142.57078552 140.99250793 C144.78398015 143.59483569 146.99349266 145.88766122 149.63328552 148.05500793 C152.22856515 150.18787694 154.40017988 152.42814164 156.57078552 154.99250793 C158.9302691 157.77427045 161.34844841 160.19943281 164.13328552 162.55500793 C175.39210568 172.18369004 183.78545978 185.21888911 186.94578552 199.80500793 C187.04639643 201.21947891 187.1007488 202.63733658 187.13328552 204.05500793 C187.1719574 205.27446106 187.21062927 206.49391418 187.25047302 207.75032043 C187.65786462 226.40177064 182.8211433 241.8353828 169.8314476 255.641819 C165.62151113 260.00994983 161.32536105 264.2919027 157.03123474 268.57698059 C155.38568668 270.22987701 153.74075995 271.88339219 152.09640503 273.53747559 C147.64666203 278.00936192 143.18739711 282.47163377 138.7256217 286.9315114 C134.99315773 290.66385534 131.26505213 294.40053827 127.53681099 298.13709962 C118.23437396 307.46027975 108.92191527 316.77338913 99.6055025 326.082601 C91.53685888 334.14567164 83.48149142 342.22185952 75.43220936 350.30425461 C67.1437709 358.62652166 58.84598882 366.93936914 50.53831303 375.24243391 C45.88380785 379.89487709 41.23310759 384.55096683 36.59193039 389.21670914 C32.22488736 393.60610268 27.84581834 397.98314061 23.45747566 402.35123634 C21.85568543 403.94963134 20.25808624 405.55223994 18.66519356 407.15950203 C3.33384492 422.61949228 -11.54635917 433.93206055 -34.30421448 434.36750793 C-51.46881939 434.38541052 -66.93686145 427.79081931 -79.29249573 415.92219543 C-86.57201533 407.81420244 -91.89290457 398.5701369 -94.86671448 388.05500793 C-95.2012262 386.97219543 -95.2012262 386.97219543 -95.54249573 385.86750793 C-99.34660167 371.78972812 -96.74320371 356.01656767 -90.11671448 343.18000793 C-83.91678848 333.03459188 -75.79311944 324.69526455 -67.40187073 316.3631134 C-66.26726997 315.22907814 -65.13311209 314.09459964 -63.99935913 312.9597168 C-60.94860466 309.90839319 -57.89176445 306.86323544 -54.83371735 303.81922293 C-51.62837512 300.62646201 -48.42877126 297.4279605 -45.22853088 294.23008728 C-39.18021965 288.1879692 -33.12683263 282.15096347 -27.07156372 276.1158191 C-20.17272992 269.23941198 -13.27963719 262.35726196 -6.38699913 255.47464538 C7.78009118 241.32840799 21.95430538 227.1893273 36.13328552 213.05500793 C34.59249942 209.39033862 32.38768358 207.06980755 29.58076477 204.28216553 C29.11509193 203.81690053 28.64941908 203.35163553 28.16963494 202.8722716 C26.60996635 201.31632964 25.04327422 199.76765825 23.47654724 198.21882629 C22.35579087 197.10354649 21.23549688 195.98780187 20.1156311 194.87162781 C17.70281286 192.4685214 15.28697192 190.06850992 12.86881638 187.67077446 C9.03798507 183.8717965 5.21535763 180.06463553 1.39405823 176.256073 C-8.1042797 166.79180787 -17.61177456 157.33675553 -27.12434387 147.88679504 C-34.50745155 140.55226857 -41.88726717 133.21450278 -49.25655735 125.86608988 C-53.04641256 122.08769389 -56.84307922 118.31632631 -60.64515996 114.55023468 C-63.02236185 112.19237976 -65.39314067 109.82814442 -67.76227379 107.46218491 C-68.85279228 106.37564762 -69.94586136 105.29166253 -71.0418148 104.21060753 C-85.80692532 89.63882723 -96.57725647 73.67757329 -97.30421448 52.30500793 C-96.82111761 34.0479723 -89.56628489 17.97424469 -76.34034729 5.38020325 C-54.39442932 -14.35512524 -24.50727767 -14.40733535 0 0 Z " fill="#F96FA1" transform="translate(635.8667144775391,328.9449920654297)"/>
<path d="M0 0 C0.86496094 0.350625 1.72992188 0.70125 2.62109375 1.0625 C18.72316929 8.29712989 29.41669652 21.85724957 35.94140625 37.80859375 C41.02638235 53.13857704 38.94977973 71.67874787 32.375 86.125 C29.63068296 91.35978475 26.24013798 95.50364641 22.1484375 99.74609375 C19.94560023 101.98732468 19.94560023 101.98732468 17.97265625 104.56640625 C16.1341273 106.83453207 14.29231258 108.62784053 12.0625 110.5 C7.93148191 114.04196551 4.10678799 117.6239933 0.6875 121.875 C-1.92226174 125.0775152 -4.94980533 127.66402201 -8.08203125 130.34375 C-11.48355092 133.28111118 -14.49655421 136.37409442 -17.3125 139.875 C-19.92642611 143.08262541 -22.95918368 145.67286371 -26.09765625 148.35546875 C-28.52657991 150.4552159 -30.75731119 152.70261147 -33 155 C-34.49862449 156.50137425 -35.99876391 158.00123711 -37.5 159.5 C-38.27859375 160.27988281 -39.0571875 161.05976563 -39.859375 161.86328125 C-41.48003148 163.48098033 -43.11231848 165.08703852 -44.75 166.6875 C-47.09179181 169.02172173 -47.09179181 169.02172173 -49.3125 171.875 C-51.24562803 174.24216001 -53.30939466 176.19887275 -55.640625 178.17407227 C-60.10607193 182.03962532 -64.27756148 186.15026162 -68.4375 190.33984375 C-69.20304199 191.10680069 -69.96858398 191.87375763 -70.75732422 192.66395569 C-73.17393197 195.08610881 -75.58701726 197.51173612 -78 199.9375 C-79.64950686 201.59202893 -81.29924429 203.24632802 -82.94921875 204.90039062 C-86.96881398 208.9309423 -90.98532439 212.96454877 -95 217 C-89.76221672 223.35645023 -83.99011073 229.12402783 -78.14868164 234.91723633 C-77.05547973 236.00523653 -75.96252486 237.093485 -74.86979675 238.18196106 C-72.52707669 240.514787 -70.18289813 242.84613376 -67.83763313 245.17640114 C-64.12244007 248.8683987 -60.41224071 252.56538734 -56.70298767 256.26335144 C-46.15828281 266.77473254 -35.60943412 277.28192947 -25.05004883 287.77856445 C-19.20985494 293.58413589 -13.37511536 299.395132 -7.54628843 305.21211642 C-3.86783326 308.88251636 -0.18293424 312.5462769 3.50696743 316.20516741 C5.80985043 318.49193582 8.10630094 320.78508212 10.40104485 323.08001518 C11.45813761 324.13470576 12.51777366 325.18685506 13.58026505 326.23610687 C21.46248199 334.0242569 28.33036733 342.08420048 33.3125 352.0625 C33.78300781 352.98160156 34.25351562 353.90070313 34.73828125 354.84765625 C37.79644333 362.48832746 38.31769745 369.8311748 38.25 378 C38.25773437 378.93328125 38.26546875 379.8665625 38.2734375 380.828125 C38.22770347 397.20090947 31.49124255 411.40152968 20 423 C5.59273783 435.63345424 -10.85542033 441.41312011 -29.91455078 440.21142578 C-53.26111024 437.84451868 -67.66079028 421.49526613 -83.17675781 405.92089844 C-84.68549597 404.41023784 -86.19446438 402.89980717 -87.7036438 401.3895874 C-90.93523135 398.15485515 -94.16526282 394.9185801 -97.39408112 391.68108368 C-102.5017096 386.55986697 -107.61320917 381.44252565 -112.72528076 376.32574463 C-123.56982678 365.47013016 -134.41012639 354.6102798 -145.25 343.75 C-156.96824847 332.00971223 -168.6872332 320.27016497 -180.41109729 308.53548455 C-185.49130839 303.45029677 -190.56907266 298.36268215 -195.6449666 293.27318525 C-198.80122855 290.10945963 -201.95956483 286.94781107 -205.11846542 283.78672028 C-206.58104351 282.32227185 -208.04275769 280.85696003 -209.50353622 279.39071655 C-211.49982026 277.3872002 -213.49918824 275.38681146 -215.49932861 273.387146 C-216.0742364 272.80864324 -216.6491442 272.23014049 -217.24147344 271.63410735 C-220.67845877 268.20583361 -224.25381614 265.08629236 -228 262 C-240.23841704 248.28410807 -246.76332691 232.42697414 -246 213.9375 C-244.64246014 201.37303534 -240.59672807 190.14596568 -233 180 C-231.96552734 178.61361328 -231.96552734 178.61361328 -230.91015625 177.19921875 C-230.27980469 176.47347656 -229.64945313 175.74773437 -229 175 C-228.34 175 -227.68 175 -227 175 C-226.73960937 174.40058594 -226.47921875 173.80117188 -226.2109375 173.18359375 C-224.91715749 170.85061626 -223.70531236 169.70222219 -221.625 168.0625 C-218.64243522 165.61495199 -216.40431775 163.02478684 -214 160 C-212.52748254 158.78357253 -211.05393969 157.56815176 -209.5625 156.375 C-207.89219616 154.90513262 -206.53657787 153.34344262 -205.125 151.625 C-202.35343015 148.27299667 -199.25593734 145.56492026 -195.9453125 142.7578125 C-193.5185265 140.56493358 -191.50891915 138.14463625 -189.43359375 135.625 C-187.19912825 133.09219987 -184.62564613 131.12286283 -182 129 C-179.01248138 126.16568746 -176.29516398 123.19057629 -173.625 120.0625 C-170.87853714 116.88207223 -167.98947726 114.22349918 -164.75 111.5625 C-162.15435421 109.24495911 -160.00124281 106.59095069 -157.75390625 103.94140625 C-155.58248307 101.53784875 -153.187008 99.55454462 -150.69140625 97.5 C-148.34930515 95.42294036 -146.41142169 93.08292717 -144.4140625 90.6796875 C-142.39804306 88.28496828 -140.30875347 86.11635734 -138 84 C-137.34 84 -136.68 84 -136 84 C-136 83.34 -136 82.68 -136 82 C-135.34 82 -134.68 82 -134 82 C-134 81.34 -134 80.68 -134 80 C-132.4609375 78.51953125 -132.4609375 78.51953125 -130.375 76.8125 C-127.64285119 74.49809626 -125.20770582 72.20604369 -122.9375 69.4375 C-120.42814085 66.3894469 -117.68734076 63.91379308 -114.65625 61.39453125 C-111.12352117 58.42004023 -108.06908244 55.10472056 -105.125 51.5625 C-102.53855637 48.49733158 -99.73539521 45.95373308 -96.65625 43.39453125 C-93.14570562 40.43871912 -90.10759831 37.14952727 -87.1875 33.625 C-84.38159644 30.2925387 -81.25284711 27.56302179 -77.9375 24.75 C-76.10650686 23.09619975 -74.56392014 21.40390278 -73 19.5 C-64.61059989 9.4237232 -53.41274423 2.11806452 -41 -2 C-39.95585937 -2.35707031 -38.91171875 -2.71414063 -37.8359375 -3.08203125 C-25.53100811 -6.02669358 -11.57888386 -4.9507464 0 0 Z " fill="#F557A7" transform="translate(448,323)"/>
<path d="M0 0 C3.06862404 1.18142861 4.76118061 3.02357715 7.08666706 5.3459692 C7.80104861 6.05333079 7.80104861 6.05333079 8.52986211 6.77498251 C10.12520138 8.35834844 11.7095942 9.95223154 13.29423237 11.54630184 C14.43553819 12.68354269 15.57748127 13.8201443 16.72001362 14.95615292 C19.82431814 18.04676006 22.91903169 21.14680856 26.01173902 24.24901557 C29.25377391 27.49864554 32.50312228 30.74094921 35.75130939 33.98442745 C41.21162279 39.4392782 46.66557184 44.90043247 52.11600971 50.3651495 C58.40191505 56.66733324 64.69848818 62.95870305 71.00080806 69.24446863 C76.41882272 74.64882426 81.83091224 80.05906128 87.23818654 85.47416312 C90.46410832 88.70474351 93.69197829 91.93330732 96.92520809 95.1565752 C99.97146224 98.19409941 103.0101627 101.23899128 106.04343128 104.28948116 C107.1521711 105.40215596 108.26341249 106.51234511 109.3774519 107.61971378 C117.38408906 115.58285471 124.44468851 123.74184321 129.52348042 133.91373348 C130.22924213 135.29238583 130.22924213 135.29238583 130.94926167 136.69888973 C134.00742375 144.33956094 134.52867786 151.68240829 134.46098042 159.85123348 C134.46871479 160.78451473 134.47644917 161.71779598 134.48441792 162.67935848 C134.43868388 179.05214295 127.70222297 193.25276316 116.21098042 204.85123348 C101.80371825 217.48468772 85.35556009 223.26435359 66.29642963 222.06265926 C42.91154812 219.69186701 28.48880609 203.28339781 12.93900776 187.69278622 C11.42052568 186.1740216 9.90182245 184.65547807 8.38291645 183.13713741 C4.28635652 179.04086284 0.19287387 174.94152582 -3.9000392 170.84160781 C-8.18767779 166.54769205 -12.47817335 162.25663287 -16.76835918 157.96526241 C-24.88029229 149.85022881 -32.98967424 141.73265082 -41.09812963 133.61414248 C-50.33441113 124.36665995 -59.57355301 115.12203747 -68.81292939 105.87764728 C-87.80813092 86.87201039 -106.79975987 67.86280694 -125.78901958 48.85123348 C-122.17052558 48.85123348 -120.71115652 49.86110897 -117.60151958 51.66373348 C-104.28308126 59.07255061 -88.35293692 62.76080728 -73.28511333 58.75357723 C-58.98610621 54.49363043 -49.07134312 47.60426908 -38.81245708 36.94498348 C-35.8247617 33.84718565 -32.64161956 31.05021986 -29.35933208 28.26920223 C-27.22611018 26.34293469 -25.55860631 24.10898206 -23.78901958 21.85123348 C-22.98464458 21.21185848 -22.18026958 20.57248348 -21.35151958 19.91373348 C-18.63296963 17.86430944 -18.63296963 17.86430944 -16.28901958 14.85123348 C-13.95837699 12.05446237 -11.62152334 10.10271082 -8.78901958 7.85123348 C-7.42657163 6.20828153 -6.09037083 4.54299011 -4.78901958 2.85123348 C-2.35159469 -0.19554764 -2.35159469 -0.19554764 0 0 Z " fill="#AC18D6" transform="translate(351.78901958465576,541.1487665176392)"/>
<path d="M0 0 C4.80847803 3.15370573 8.67506977 6.97587547 12.66062927 11.09407043 C13.91584129 12.35989456 13.91584129 12.35989456 15.19641113 13.65129089 C17.83333413 16.3158785 20.45222813 18.99738281 23.07078552 21.68000793 C24.85150884 23.48585753 26.63340109 25.29055524 28.41648865 27.09407043 C31.67693812 30.39512434 34.93069318 33.70245581 38.17601013 37.01838684 C39.49481508 38.36420835 40.81387257 39.70978249 42.13328552 41.05500793 C42.89670761 41.8337326 42.89670761 41.8337326 43.67555237 42.62818909 C45.71340939 44.68963822 47.74309837 46.54550957 50.00828552 48.36750793 C53.21080072 50.97726968 55.79730753 54.00481327 58.47703552 57.13703918 C61.41439671 60.53855886 64.50737994 63.55156214 68.00828552 66.36750793 C70.30349552 68.24750406 72.21656334 70.22904204 74.13328552 72.49250793 C79.23917524 78.49135595 84.93140413 83.93687206 90.5322113 89.46784973 C91.9917905 90.91474274 93.43826909 92.37482086 94.88328552 93.83625793 C97.16076057 96.15669351 97.16076057 96.15669351 100.00828552 98.36750793 C103.21080072 100.97726968 105.79730753 104.00481327 108.47703552 107.13703918 C111.41439671 110.53855886 114.50737994 113.55156214 118.00828552 116.36750793 C121.21080072 118.97726968 123.79730753 122.00481327 126.47703552 125.13703918 C129.41439671 128.53855886 132.50737994 131.55156214 136.00828552 134.36750793 C138.48051974 136.37817413 140.50770013 138.56480566 142.57078552 140.99250793 C145.28540126 144.18441874 148.13060863 146.82369481 151.36375427 149.47297668 C154.0652996 151.88826555 156.33787925 154.63718576 158.65281677 157.41828918 C160.05429267 159.16689678 160.05429267 159.16689678 162.13328552 160.05500793 C162.13328552 160.71500793 162.13328552 161.37500793 162.13328552 162.05500793 C158.78789775 160.77241227 155.66294463 159.31089518 152.50828552 157.61750793 C136.32202979 149.52438007 120.26843913 150.05968072 103.40281677 155.11750793 C100.65049061 155.9067054 97.94831362 156.5460763 95.13328552 157.05500793 C94.80328552 158.04500793 94.47328552 159.03500793 94.13328552 160.05500793 C92.13328552 160.7216746 90.13328552 161.38834127 88.13328552 162.05500793 C87.80328552 163.04500793 87.47328552 164.03500793 87.13328552 165.05500793 C85.60409546 166.56542969 85.60409546 166.56542969 83.63694763 168.18464661 C78.87861828 172.22489972 74.48113148 176.56301251 70.07469177 180.98078918 C69.24493332 181.80959091 68.41517487 182.63839264 67.56027222 183.49230957 C65.82206979 185.22983589 64.0851119 186.96860804 62.34934998 188.70857239 C59.6827637 191.38055612 57.01082864 194.04710849 54.33836365 196.71321106 C52.64598526 198.40624953 50.95391672 200.09959778 49.26219177 201.79328918 C48.46124588 202.59221085 47.66029999 203.39113251 46.83508301 204.21426392 C46.1001915 204.95230759 45.36529999 205.69035126 44.60813904 206.45075989 C43.95942337 207.10027115 43.3107077 207.74978241 42.64233398 208.41897583 C41.04650344 209.997157 41.04650344 209.997157 40.13328552 212.05500793 C36.031638 211.52406781 34.12982105 209.4286756 31.264328 206.56700134 C30.7887792 206.09613252 30.3132304 205.62526369 29.82327104 205.14012611 C28.2302656 203.55909409 26.64820705 201.9675451 25.06590271 200.37580872 C23.92621938 199.24019041 22.7858988 198.10521133 21.64498901 196.9708252 C18.54474895 193.88428345 15.45410129 190.7882991 12.36545849 187.69015741 C9.12656148 184.44366395 5.88034933 181.20449844 2.63529968 177.9641571 C-2.82081775 172.51350271 -8.27057033 167.05654433 -13.71681213 161.59602356 C-19.99474917 155.30181626 -26.28334267 149.01841181 -32.57769322 142.74062169 C-37.99063242 137.34135031 -43.39763541 131.93618653 -48.79983211 126.5261668 C-52.02187524 123.29946877 -55.24585751 120.07477833 -58.4752121 116.85539627 C-61.51901329 113.82033759 -64.5552371 110.77788742 -67.58605766 107.72986794 C-68.69276801 106.61922885 -69.80196818 105.51106365 -70.91398048 104.40573311 C-85.64744369 89.75257447 -96.57416853 73.76835872 -97.30421448 52.30500793 C-96.82111761 34.0479723 -89.56628489 17.97424469 -76.34034729 5.38020325 C-54.39442932 -14.35512524 -24.50727767 -14.40733535 0 0 Z " fill="#870CEB" transform="translate(635.8667144775391,328.9449920654297)"/>
<path d="M0 0 C11.18236555 8.57202419 19.64474273 22.46364202 22.21875 36.36328125 C24.153482 54.65529285 21.72330873 71.4990414 10.5546875 86.59375 C5.88518573 92.29575116 1.6068778 97.41042208 -5.40625 99.98828125 C-6.52790547 100.73343698 -7.63250452 101.50489256 -8.71875 102.30078125 C-22.37788361 110.89529228 -38.0287704 111.64185884 -53.53125 108.98828125 C-69.97769883 104.97140665 -82.39027217 95.10834571 -91.40625 80.98828125 C-97.84318219 69.96574692 -99.76089838 60.14965389 -99.71875 47.48828125 C-99.73486328 46.52019531 -99.75097656 45.55210937 -99.76757812 44.5546875 C-99.7744882 34.25867238 -97.01997247 27.2157262 -92.40625 17.98828125 C-101.97625 27.55828125 -111.54625 37.12828125 -121.40625 46.98828125 C-122.06625 46.65828125 -122.72625 46.32828125 -123.40625 45.98828125 C-117.75869119 40.31750399 -112.10840067 34.64946848 -106.45464802 28.9848671 C-103.82918567 26.35419668 -101.20465737 23.72260856 -98.58227539 21.08886719 C-96.04927606 18.54496505 -93.51380827 16.00354705 -90.97664452 13.46379852 C-90.01138039 12.49669345 -89.04699362 11.52871183 -88.08352089 10.55982208 C-86.72901977 9.19801239 -85.37104153 7.83966388 -84.01293945 6.48144531 C-83.24238724 5.70867249 -82.47183502 4.93589966 -81.67793274 4.13970947 C-78.14583082 0.79458402 -74.74272001 -1.84348374 -70.40625 -4.01171875 C-70.07625 -4.67171875 -69.74625 -5.33171875 -69.40625 -6.01171875 C-64.83828881 -7.94550965 -60.11582729 -9.46075292 -55.40625 -11.01171875 C-54.25769531 -11.39263672 -54.25769531 -11.39263672 -53.0859375 -11.78125 C-35.50060415 -16.89497664 -14.59446633 -9.7925514 0 0 Z " fill="#F036A2" transform="translate(800.40625,492.01171875)"/>
<path d="M0 0 C13.70794481 10.53969871 22.69736881 25.79194367 25 43 C26.220344 56.13395232 23.67972646 69.54904035 17 81 C16.34 81 15.68 81 15 81 C15.33 81.99 15.66 82.98 16 84 C2.74941938 98.13667911 -10.71438153 109.12911385 -30.5703125 111.41015625 C-45.35398131 111.79742776 -58.38185257 108.58917563 -71 101 C-71.66 100.34 -72.32 99.68 -73 99 C-73.77472656 98.7215625 -74.54945313 98.443125 -75.34765625 98.15625 C-84.52999479 94.15334542 -90.46261233 82.38079194 -94.5546875 73.703125 C-101.02787244 57.11777548 -99.94732041 39.24339434 -93 23 C-90.93062609 19.11124366 -88.63869236 15.52415959 -86 12 C-85.31035156 11.07574219 -84.62070313 10.15148437 -83.91015625 9.19921875 C-83.27980469 8.47347656 -82.64945313 7.74773437 -82 7 C-81.34 7 -80.68 7 -80 7 C-79.773125 6.4225 -79.54625 5.845 -79.3125 5.25 C-77.66961977 2.4336339 -75.60466773 0.91922886 -73 -1 C-72.34 -0.67 -71.68 -0.34 -71 0 C-71 -0.66 -71 -1.32 -71 -2 C-47.27078914 -13.6571163 -22.64972265 -15.77448769 0 0 Z " fill="#FA6593" transform="translate(301,491)"/>
<path d="M0 0 C0.99 0.33 1.98 0.66 3 1 C-2.12007825 6.18968585 -7.24830567 11.3711716 -12.38699627 16.54243279 C-14.77302242 18.94409369 -17.15618625 21.34845576 -19.53295898 23.75927734 C-22.26881749 26.53151884 -25.01424035 29.29396767 -27.76171875 32.0546875 C-28.61086349 32.9193161 -29.46000824 33.7839447 -30.33488464 34.67477417 C-31.13533707 35.47545319 -31.93578949 36.2761322 -32.76049805 37.10107422 C-33.45999069 37.8072287 -34.15948334 38.51338318 -34.88017273 39.24093628 C-37.15569657 41.1291993 -39.21310332 42.05693585 -42 43 C-36.67229626 36.63274431 -31.1199937 30.78142317 -24.8125 25.375 C-21.81799896 22.80088083 -19.43928588 20.11219232 -17 17 C-16.195625 16.360625 -15.39125 15.72125 -14.5625 15.0625 C-11.84395004 13.01307596 -11.84395004 13.01307596 -9.5 10 C-7.1777811 7.21333733 -4.83824909 5.22457361 -2 3 C-1.34 2.01 -0.68 1.02 0 0 Z " fill="#8D10E7" transform="translate(345,546)"/>
<path d="M0 0 C0.66 0.33 1.32 0.66 2 1 C1.31035156 1.53367187 0.62070312 2.06734375 -0.08984375 2.6171875 C-5.87419858 7.20341122 -10.8792983 11.78217072 -15.63671875 17.4453125 C-17.53821006 19.50080889 -19.40007556 21.24844185 -21.51953125 23.05859375 C-27.31094215 28.04288871 -32.62319119 33.51637224 -38 38.9375 C-39.07137887 40.01390654 -40.14299182 41.09008014 -41.21484375 42.16601562 C-43.81259638 44.77466745 -46.40717962 47.38644471 -49 50 C-49.66 49.67 -50.32 49.34 -51 49 C-45.35244119 43.32922274 -39.70215067 37.66118723 -34.04839802 31.99658585 C-31.42293567 29.36591543 -28.79840737 26.73432731 -26.17602539 24.10058594 C-23.64302606 21.5566838 -21.10755827 19.0152658 -18.57039452 16.47551727 C-17.60513039 15.5084122 -16.64074362 14.54043058 -15.67727089 13.57154083 C-14.32276977 12.20973114 -12.96479153 10.85138263 -11.60668945 9.49316406 C-10.83613724 8.72039124 -10.06558502 7.94761841 -9.27168274 7.15142822 C-6.40364831 4.43521697 -3.55056177 1.77528088 0 0 Z " fill="#E84CAC" transform="translate(728,489)"/>
<path d="M0 0 C0.99 0.33 1.98 0.66 3 1 C-1.29 5.29 -5.58 9.58 -10 14 C-10.33 13.01 -10.66 12.02 -11 11 C-10.37351562 10.45730469 -9.74703125 9.91460938 -9.1015625 9.35546875 C-8.28429687 8.64003906 -7.46703125 7.92460938 -6.625 7.1875 C-5.40683594 6.12595703 -5.40683594 6.12595703 -4.1640625 5.04296875 C-1.83816812 3.00018747 -1.83816812 3.00018747 0 0 Z " fill="#9813E1" transform="translate(345,546)"/>
<path d="M0 0 C3.11198065 1.49836105 6.0534615 3.19933758 9 5 C8.67 5.66 8.34 6.32 8 7 C4.2047869 5.50902342 2.38957269 3.24299151 0 0 Z " fill="#6D0AF5" transform="translate(226,589)"/>
<path d="M0 0 C0.66 0.66 1.32 1.32 2 2 C-0.64 3.98 -3.28 5.96 -6 8 C-4.21844267 4.43688534 -2.83236991 2.64354525 0 0 Z " fill="#F7829B" transform="translate(227,490)"/>
</svg>
